<?xml version="1.0" encoding="utf-8"?>
<!-- Generator: Adobe Illustrator 23.0.1, SVG Export Plug-In . SVG Version: 6.00 Build 0)  -->
<svg version="1.0" id="Layer_1" xmlns="http://www.w3.org/2000/svg" xmlns:xlink="http://www.w3.org/1999/xlink" x="0px" y="0px"
	 viewBox="0 0 1080 1920" style="enable-background:new 0 0 1080 1920;" xml:space="preserve">
<g>
	<path d="M23.4,118.94v-9.88l6.8-0.96l30.94-82.61h15.73l30.55,82.61l6.8,0.96v9.88H84.51v-9.88l6.68-1.22l-4.94-14.7H51.45
		l-5.07,14.7l6.74,1.22v9.88H23.4z M55.69,80.75h26.38l-12.13-34.6l-0.83-2.5h-0.39l-0.9,2.63L55.69,80.75z"/>
</g>
<g>
	<circle cx="206" cy="80.53" r="33"/>
	<path d="M280,68.53h42c6.6,0,12,5.4,12,12v0c0,6.6-5.4,12-12,12h-42c-6.6,0-12-5.4-12-12v0C268,73.93,273.4,68.53,280,68.53z"/>
</g>
<g>
	<path d="M560.43,118.94v-9.88l10.21-1.93V37.36l-10.21-1.93v-9.95h10.21H587l42.88,68.23l0.39-0.13V37.36l-11.81-1.93v-9.95h26.38
		h10.21v9.95l-10.21,1.93v81.58H629.5l-43.9-67.97l-0.38,0.06v56.1l11.81,1.93v9.88H560.43z"/>
</g>
<path d="M700,68.53h42c6.6,0,12,5.4,12,12v0c0,6.6-5.4,12-12,12h-42c-6.6,0-12-5.4-12-12v0C688,73.93,693.4,68.53,700,68.53z"/>
<circle cx="816" cy="80.53" r="33"/>
<g>
	<path d="M24.24,266.93v-9.88l10.21-1.93v-69.77l-10.21-1.93v-9.95h10.21h30.81c10.48,0,18.67,2.13,24.55,6.39
		c5.88,4.26,8.83,10.62,8.83,19.1c0,4.24-1.22,8.03-3.66,11.39c-2.44,3.36-5.82,5.85-10.14,7.48c3.76,0.81,6.93,2.29,9.5,4.43
		c2.57,2.14,4.52,4.74,5.87,7.8c1.35,3.06,2.02,6.41,2.02,10.04c0,8.77-2.88,15.44-8.63,19.99c-5.76,4.56-13.77,6.84-24.04,6.84
		H24.24z M50.62,212.89h16.43c4.79,0,8.56-1.16,11.3-3.47c2.74-2.31,4.11-5.54,4.11-9.69c0-4.66-1.46-8.12-4.36-10.37
		c-2.91-2.25-7.19-3.37-12.84-3.37H50.62V212.89z M50.62,254.48h18.93c5.31,0,9.38-1.23,12.23-3.69c2.85-2.46,4.27-6.02,4.27-10.69
		c0-3.29-0.54-6.1-1.6-8.41c-1.07-2.31-2.7-4.09-4.88-5.33c-2.18-1.24-4.99-1.86-8.41-1.86H50.62V254.48z"/>
</g>
<path d="M185,211.39h42c6.6,0,12,5.4,12,12v0c0,6.6-5.4,12-12,12h-42c-6.6,0-12-5.4-12-12v0C173,216.79,178.4,211.39,185,211.39z"/>
<circle cx="301" cy="223.39" r="33"/>
<circle cx="396" cy="223.39" r="33"/>
<circle cx="491" cy="223.39" r="33"/>
<g>
	<path d="M607.45,268.28c-6.2,0-11.81-1.17-16.82-3.5c-5.01-2.33-9.3-5.62-12.87-9.85c-3.57-4.24-6.32-9.24-8.25-15.02
		c-1.92-5.78-2.89-12.11-2.89-19v-1.41c0-6.85,0.96-13.16,2.89-18.94c1.93-5.78,4.67-10.79,8.25-15.05
		c3.57-4.26,7.86-7.55,12.87-9.88c5.01-2.33,10.59-3.5,16.75-3.5c6.38,0,12.09,1.17,17.14,3.5c5.05,2.33,9.35,5.63,12.9,9.88
		c3.55,4.26,6.27,9.27,8.15,15.05c1.88,5.78,2.82,12.09,2.82,18.94v1.41c0,6.89-0.94,13.22-2.82,19c-1.88,5.78-4.6,10.78-8.15,15.02
		c-3.55,4.24-7.85,7.52-12.9,9.85C619.47,267.11,613.78,268.28,607.45,268.28z M607.45,255.44c5.65,0,10.3-1.44,13.96-4.33
		s6.38-6.92,8.15-12.1c1.78-5.18,2.66-11.21,2.66-18.1v-1.54c0-6.8-0.9-12.77-2.7-17.91c-1.8-5.14-4.52-9.16-8.18-12.07
		c-3.66-2.91-8.31-4.36-13.96-4.36c-5.39,0-9.91,1.46-13.54,4.36c-3.64,2.91-6.38,6.93-8.22,12.07c-1.84,5.13-2.76,11.1-2.76,17.91
		v1.54c0,6.85,0.92,12.87,2.76,18.07c1.84,5.2,4.59,9.24,8.25,12.13C597.53,254,602.06,255.44,607.45,255.44z"/>
</g>
<path d="M700,216.52h42c6.6,0,12,5.4,12,12v0c0,6.6-5.4,12-12,12h-42c-6.6,0-12-5.4-12-12v0C688,221.92,693.4,216.52,700,216.52z"/>
<path d="M796,216.52h42c6.6,0,12,5.4,12,12v0c0,6.6-5.4,12-12,12h-42c-6.6,0-12-5.4-12-12v0C784,221.92,789.4,216.52,796,216.52z"/>
<path d="M891,216.52h42c6.6,0,12,5.4,12,12v0c0,6.6-5.4,12-12,12h-42c-6.6,0-12-5.4-12-12v0C879,221.92,884.4,216.52,891,216.52z"/>
<g>
	<g>
		<path d="M67.82,416.27c-9.2,0-17.06-1.96-23.59-5.87c-6.53-3.92-11.51-9.39-14.96-16.43c-3.44-7.04-5.17-15.22-5.17-24.55v-2.37
			c0-9.11,1.71-17.19,5.13-24.23c3.42-7.04,8.32-12.58,14.7-16.62c6.38-4.04,13.99-6.07,22.85-6.07c6.2,0,11.96,0.92,17.27,2.76
			c5.31,1.84,9.93,4.43,13.86,7.77v21.57H85.6l-1.67-14.44c-1.41-1.03-2.97-1.9-4.69-2.63c-1.71-0.73-3.58-1.28-5.62-1.67
			c-2.03-0.39-4.25-0.58-6.64-0.58c-5.61,0-10.41,1.41-14.41,4.24c-4,2.82-7.05,6.78-9.15,11.87c-2.1,5.09-3.15,11.06-3.15,17.91
			v2.5c0,7.1,1.11,13.21,3.34,18.33c2.22,5.11,5.42,9.04,9.6,11.78c4.17,2.74,9.17,4.11,14.99,4.11c2.82,0,5.62-0.33,8.38-0.99
			c2.76-0.66,5.19-1.53,7.29-2.6l1.73-13.09h12.2v21.44c-3.59,2.35-7.99,4.26-13.19,5.71C79.4,415.55,73.81,416.27,67.82,416.27z"/>
	</g>
</g>
<path d="M186,364.51h42c6.6,0,12,5.4,12,12l0,0c0,6.6-5.4,12-12,12h-42c-6.6,0-12-5.4-12-12l0,0C174,369.91,179.4,364.51,186,364.51
	z"/>
<circle cx="301" cy="376.51" r="33"/>
<path d="M375,364.51h42c6.6,0,12,5.4,12,12l0,0c0,6.6-5.4,12-12,12h-42c-6.6,0-12-5.4-12-12l0,0C363,369.91,368.4,364.51,375,364.51
	z"/>
<circle cx="491" cy="376.51" r="33"/>
<g>
	<path d="M569.55,414.93v-9.88l10.21-1.93v-69.77l-10.21-1.93v-9.95h10.21h33.63c6.97,0,12.95,1.22,17.94,3.66
		c4.98,2.44,8.8,5.83,11.46,10.17c2.65,4.34,3.98,9.43,3.98,15.24c0,5.82-1.33,10.9-3.98,15.24c-2.65,4.34-6.47,7.71-11.46,10.11
		c-4.99,2.4-10.97,3.59-17.94,3.59h-17.46v23.62l10.21,1.93v9.88H569.55z M595.93,366.98h17.46c5.73,0,10.03-1.54,12.9-4.62
		c2.87-3.08,4.3-6.97,4.3-11.68c0-4.79-1.43-8.77-4.3-11.94c-2.87-3.17-7.17-4.75-12.9-4.75h-17.46V366.98z"/>
</g>
<circle cx="721" cy="376.51" r="33"/>
<path d="M795,364.51h42c6.6,0,12,5.4,12,12v0c0,6.6-5.4,12-12,12h-42c-6.6,0-12-5.4-12-12v0C783,369.91,788.4,364.51,795,364.51z"/>
<path d="M891,364.51h42c6.6,0,12,5.4,12,12v0c0,6.6-5.4,12-12,12h-42c-6.6,0-12-5.4-12-12v0C879,369.91,884.4,364.51,891,364.51z"/>
<circle cx="1007" cy="376.51" r="33"/>
<g>
	<path d="M24.24,562.92v-9.88l10.27-1.99v-69.58l-10.27-2.05v-9.95h10.27h28.88c8.34,0,15.65,1.97,21.92,5.91
		c6.27,3.94,11.16,9.35,14.67,16.24c3.51,6.89,5.26,14.78,5.26,23.68v1.86c0,8.77-1.71,16.61-5.14,23.52
		c-3.42,6.91-8.25,12.35-14.47,16.3c-6.23,3.96-13.49,5.94-21.79,5.94H24.24z M50.68,550.47H63c5.48,0,10.15-1.47,14.02-4.4
		c3.87-2.93,6.84-6.91,8.89-11.94c2.05-5.03,3.08-10.69,3.08-16.98v-1.93c0-6.46-1.03-12.18-3.08-17.17
		c-2.05-4.98-5.02-8.91-8.89-11.78c-3.87-2.87-8.55-4.3-14.02-4.3H50.68V550.47z"/>
</g>
<path d="M185,512.5h42c6.6,0,12,5.4,12,12l0,0c0,6.6-5.4,12-12,12h-42c-6.6,0-12-5.4-12-12l0,0C173,517.9,178.4,512.5,185,512.5z"/>
<circle cx="301" cy="524.5" r="33"/>
<circle cx="397" cy="524.5" r="33"/>
<g>
	<path d="M643.39,579.99l-24.78-17.33c-1.84,0.51-3.73,0.91-5.68,1.19c-1.95,0.28-3.88,0.42-5.81,0.42c-6.21,0-11.81-1.17-16.82-3.5
		c-5.01-2.33-9.3-5.62-12.87-9.85c-3.57-4.24-6.32-9.24-8.25-15.02c-1.93-5.78-2.89-12.11-2.89-19v-1.41
		c0-6.85,0.96-13.16,2.89-18.94c1.93-5.78,4.66-10.79,8.22-15.05c3.55-4.26,7.83-7.55,12.84-9.88c5.01-2.33,10.61-3.5,16.82-3.5
		c6.33,0,12.02,1.17,17.07,3.5c5.05,2.33,9.35,5.63,12.9,9.88c3.55,4.26,6.27,9.27,8.15,15.05c1.88,5.78,2.82,12.09,2.82,18.94v1.41
		c0,8.26-1.27,15.76-3.82,22.5c-2.55,6.74-6.49,12.23-11.84,16.46l19.38,12.64L643.39,579.99z M607.13,551.43
		c5.61,0,10.24-1.44,13.9-4.33s6.39-6.92,8.18-12.1c1.8-5.18,2.7-11.21,2.7-18.1v-1.54c0-6.8-0.9-12.77-2.7-17.91
		c-1.8-5.14-4.54-9.16-8.22-12.07c-3.68-2.91-8.32-4.36-13.93-4.36c-5.39,0-9.91,1.46-13.54,4.36c-3.64,2.91-6.39,6.93-8.25,12.07
		c-1.86,5.13-2.79,11.1-2.79,17.91v1.54c0,6.85,0.92,12.87,2.76,18.07c1.84,5.2,4.6,9.24,8.28,12.13
		C597.2,549.98,601.74,551.43,607.13,551.43z"/>
</g>
<path d="M700,512.5h42c6.6,0,12,5.4,12,12l0,0c0,6.6-5.4,12-12,12h-42c-6.6,0-12-5.4-12-12l0,0C688,517.9,693.4,512.5,700,512.5z"/>
<path d="M796,512.5h42c6.6,0,12,5.4,12,12l0,0c0,6.6-5.4,12-12,12h-42c-6.6,0-12-5.4-12-12l0,0C784,517.9,789.4,512.5,796,512.5z"/>
<circle cx="911" cy="524.5" r="33"/>
<path d="M986,512.5h42c6.6,0,12,5.4,12,12l0,0c0,6.6-5.4,12-12,12h-42c-6.6,0-12-5.4-12-12l0,0C974,517.9,979.4,512.5,986,512.5z"/>
<g>
	<path d="M24.24,710.91v-9.88l10.21-1.93v-69.77l-10.21-1.93v-9.95h71.18v24.07H82.84l-1.09-11.62H50.62v26.44h32.8v12.52h-32.8
		v29.72h32.86l1.09-11.87h12.45v24.2H24.24z"/>
</g>
<circle cx="206" cy="672.5" r="33"/>
<g>
	<path d="M566.82,710.91v-9.88l10.21-1.93v-69.77l-10.21-1.93v-9.95h43.2c7.02,0,13.01,1.08,17.97,3.24
		c4.96,2.16,8.75,5.25,11.36,9.27c2.61,4.02,3.92,8.88,3.92,14.57c0,5.48-1.29,10.25-3.88,14.31c-2.59,4.07-6.21,7.22-10.85,9.47
		c-4.64,2.25-10.09,3.41-16.34,3.5l-19,0.19v27.09l10.21,1.93v9.88H566.82z M593.2,659.43h16.11c6.08,0,10.57-1.23,13.48-3.69
		c2.91-2.46,4.36-6.04,4.36-10.75c0-4.58-1.41-8.23-4.24-10.94c-2.82-2.72-7.13-4.08-12.9-4.08H593.2V659.43z M627.6,710.91
		l-17.84-43l15.15-2.5l15.15,33.95l7.32,1.54v10.01H627.6z"/>
</g>
<circle cx="721" cy="672.5" r="33"/>
<path d="M795,660.5h42c6.6,0,12,5.4,12,12l0,0c0,6.6-5.4,12-12,12h-42c-6.6,0-12-5.4-12-12l0,0C783,665.9,788.4,660.5,795,660.5z"/>
<circle cx="912" cy="672.5" r="33"/>
<g>
	<path d="M24.24,858.9v-9.88l10.21-1.93v-69.77l-10.21-1.93v-9.95h72.66v24.26H84.31l-1.03-11.75H50.62v28.5h33.31v12.52H50.62
		v28.11l10.21,1.93v9.88H24.24z"/>
</g>
<g>
	<circle cx="206" cy="820.49" r="33"/>
	<circle cx="302" cy="820.49" r="33"/>
	<path d="M375,808.49h42c6.6,0,12,5.4,12,12v0c0,6.6-5.4,12-12,12h-42c-6.6,0-12-5.4-12-12v0C363,813.89,368.4,808.49,375,808.49z"
		/>
	<circle cx="492" cy="820.49" r="33"/>
</g>
<g>
	<path d="M608.48,860.25c-6.38,0-12.3-0.79-17.78-2.37c-5.48-1.58-10.81-4.21-15.98-7.9v-21.5h12.52l2.05,13.93
		c2.27,1.63,5.06,2.93,8.38,3.92c3.32,0.98,6.92,1.48,10.82,1.48c3.81,0,7.01-0.55,9.6-1.64c2.59-1.09,4.57-2.62,5.94-4.59
		c1.37-1.97,2.05-4.3,2.05-7c0-2.48-0.6-4.69-1.8-6.61c-1.2-1.93-3.19-3.65-5.97-5.17c-2.78-1.52-6.55-2.92-11.3-4.2
		c-6.97-1.88-12.8-4.11-17.49-6.68s-8.22-5.65-10.59-9.24c-2.38-3.59-3.56-7.83-3.56-12.71c0-5.01,1.36-9.44,4.08-13.29
		c2.72-3.85,6.49-6.89,11.33-9.11c4.83-2.22,10.42-3.36,16.75-3.4c6.93-0.08,13.06,0.81,18.39,2.7c5.33,1.88,9.83,4.34,13.51,7.38
		v20.09h-12.26l-2.31-13.09c-1.75-1.24-4.03-2.3-6.83-3.18c-2.8-0.88-6.11-1.32-9.92-1.32c-3.25,0-6.12,0.54-8.6,1.6
		c-2.48,1.07-4.43,2.58-5.84,4.53c-1.41,1.95-2.12,4.27-2.12,6.96c0,2.35,0.62,4.41,1.86,6.16c1.24,1.75,3.32,3.35,6.23,4.78
		c2.91,1.43,6.85,2.88,11.81,4.33c10.14,2.7,17.82,6.42,23.04,11.17c5.22,4.75,7.83,10.81,7.83,18.16c0,5.18-1.4,9.7-4.2,13.58
		c-2.8,3.87-6.74,6.88-11.81,9.02C621.22,859.18,615.28,860.25,608.48,860.25z"/>
</g>
<circle cx="721" cy="820.49" r="33"/>
<circle cx="816" cy="820.49" r="33"/>
<circle cx="912" cy="820.49" r="33"/>
<g>
	<path d="M67.18,1008.24c-8.99,0-16.71-1.96-23.17-5.87c-6.46-3.92-11.42-9.35-14.89-16.3c-3.47-6.95-5.2-15.01-5.2-24.17v-2.5
		c0-9.37,1.72-17.6,5.17-24.68c3.44-7.08,8.27-12.62,14.47-16.62c6.2-4,13.44-6,21.69-6c6.93,0,13.18,0.89,18.74,2.66
		c5.56,1.78,10.35,4.31,14.38,7.61v19.96H85.98l-2.05-12.97c-1.88-1.41-4.28-2.52-7.19-3.34c-2.91-0.81-6.29-1.22-10.14-1.22
		c-5.26,0-9.9,1.44-13.9,4.33c-4,2.89-7.1,6.91-9.31,12.07c-2.2,5.16-3.31,11.18-3.31,18.07v2.63c0,6.8,1.06,12.73,3.18,17.78
		c2.12,5.05,5.22,8.96,9.31,11.75c4.09,2.78,9.06,4.17,14.92,4.17c3.72,0,7.01-0.34,9.85-1.03c2.85-0.68,5.27-1.54,7.28-2.57v-18.42
		l-15.28-0.9V961.2h31.45v37.1c-3.55,2.78-8.08,5.13-13.58,7.06C81.74,1007.28,75.05,1008.24,67.18,1008.24z"/>
</g>
<g>
	<path d="M185,956.48h42c6.6,0,12,5.4,12,12l0,0c0,6.6-5.4,12-12,12h-42c-6.6,0-12-5.4-12-12l0,0
		C173,961.88,178.4,956.48,185,956.48z"/>
	<path d="M281,956.48h42c6.6,0,12,5.4,12,12l0,0c0,6.6-5.4,12-12,12h-42c-6.6,0-12-5.4-12-12l0,0
		C269,961.88,274.4,956.48,281,956.48z"/>
	<circle cx="397" cy="968.48" r="33"/>
</g>
<g>
	<path d="M589.09,1006.9v-9.88l10.21-1.93v-69.26h-18.81l-1.41,11.94h-12.13v-24.33h80.94v24.33h-12.2l-1.41-11.94h-18.81v69.26
		l10.21,1.93v9.88H589.09z"/>
</g>
<path d="M700,956.48h42c6.6,0,12,5.4,12,12l0,0c0,6.6-5.4,12-12,12h-42c-6.6,0-12-5.4-12-12l0,0C688,961.88,693.4,956.48,700,956.48
	z"/>
<g>
	<path d="M24.24,1154.89V1145l10.21-1.93v-69.77l-10.21-1.93v-9.95h36.59v9.95l-10.21,1.93v29.14H91.5v-29.14l-10.21-1.93v-9.95
		H91.5h16.11h10.21v9.95l-10.21,1.93v69.77l10.21,1.93v9.88H81.3V1145l10.21-1.93v-28.05H50.62v28.05l10.21,1.93v9.88H24.24z"/>
</g>
<g>
	<circle cx="206" cy="1116.47" r="33"/>
	<circle cx="298" cy="1116.47" r="33"/>
	<circle cx="397" cy="1116.47" r="33"/>
	<circle cx="492" cy="1116.47" r="33"/>
</g>
<g>
	<path d="M607.22,1156.24c-6.98,0-13.16-1.27-18.55-3.82c-5.39-2.55-9.6-6.22-12.61-11.01s-4.53-10.59-4.53-17.39v-50.71
		l-10.21-1.93v-9.95h36.52v9.95l-10.21,1.93v50.71c0,4.32,0.81,7.95,2.44,10.88c1.63,2.93,3.92,5.13,6.87,6.58
		c2.95,1.46,6.4,2.18,10.33,2.18c4.06,0,7.58-0.73,10.56-2.18c2.97-1.45,5.28-3.64,6.93-6.55c1.65-2.91,2.47-6.55,2.47-10.91v-50.71
		l-10.21-1.93v-9.95h36.52v9.95l-10.14,1.93v50.71c0,6.89-1.51,12.73-4.53,17.52c-3.02,4.79-7.24,8.44-12.68,10.94
		C620.79,1154.99,614.45,1156.24,607.22,1156.24z"/>
</g>
<circle cx="721" cy="1116.47" r="33"/>
<circle cx="817" cy="1116.47" r="33"/>
<path d="M890,1104.47h42c6.6,0,12,5.4,12,12l0,0c0,6.6-5.4,12-12,12h-42c-6.6,0-12-5.4-12-12l0,0
	C878,1109.87,883.4,1104.47,890,1104.47z"/>
<g>
	<path d="M24.24,1302.88V1293l10.21-1.93v-69.77l-10.21-1.93v-9.95h36.52v9.95l-10.14,1.93v69.77l10.14,1.93v9.88H24.24z"/>
</g>
<circle cx="207" cy="1264.47" r="33"/>
<circle cx="301" cy="1264.47" r="33"/>
<g>
	<path d="M600.13,1302.88l-30.62-82.48l-7.96-1.03v-9.95h33.95v9.95l-8.47,1.35l19.45,56.93l1.73,6.1h0.38l1.8-6.03l19.71-57.06
		l-9.69-1.28v-9.95h32.93v9.95l-8.09,1.03l-29.46,82.48H600.13z"/>
</g>
<circle cx="721" cy="1264.47" r="33"/>
<circle cx="817" cy="1264.47" r="33"/>
<circle cx="912" cy="1264.47" r="33"/>
<path d="M985,1252.47h42c6.6,0,12,5.4,12,12l0,0c0,6.6-5.4,12-12,12h-42c-6.6,0-12-5.4-12-12l0,0
	C973,1257.87,978.4,1252.47,985,1252.47z"/>
<g>
	<path d="M54.15,1452.22c-5.95,0-11.22-1.07-15.82-3.21c-4.6-2.14-8.26-5.4-10.98-9.79c-2.72-4.39-4.2-9.89-4.46-16.53l0.13-0.38
		h15.34c0.26,6.21,1.65,10.62,4.17,13.25c2.52,2.63,6.01,3.95,10.46,3.95c2.95,0,5.48-0.64,7.57-1.92c2.1-1.28,3.7-3.12,4.81-5.52
		c1.11-2.4,1.67-5.26,1.67-8.6v-54.17l-12.52-1.86v-10.01h38.9v9.95l-10.27,1.93v54.17c0,5.82-1.11,10.89-3.34,15.21
		c-2.23,4.32-5.49,7.66-9.79,10.01C65.73,1451.04,60.44,1452.22,54.15,1452.22z"/>
</g>
<g>
	<circle cx="206" cy="1412.46" r="33"/>
	<path d="M280,1400.46h42c6.6,0,12,5.4,12,12l0,0c0,6.6-5.4,12-12,12h-42c-6.6,0-12-5.4-12-12l0,0
		C268,1405.86,273.4,1400.46,280,1400.46z"/>
	<path d="M376,1400.46h42c6.6,0,12,5.4,12,12l0,0c0,6.6-5.4,12-12,12h-42c-6.6,0-12-5.4-12-12l0,0
		C364,1405.86,369.4,1400.46,376,1400.46z"/>
	<path d="M471,1400.46h42c6.6,0,12,5.4,12,12l0,0c0,6.6-5.4,12-12,12h-42c-6.6,0-12-5.4-12-12l0,0
		C459,1405.86,464.4,1400.46,471,1400.46z"/>
</g>
<g>
	<path d="M571.6,1450.87l-21.76-82.54l-8.86-0.96v-9.95h34.53v9.95l-9.95,1.48l11.49,48.01l2.38,9.82l0.38,0.06l2.95-9.88
		l18.61-59.44h12.64l19.13,60.4l2.82,9.56h0.38l2.5-9.56l11.68-48.97l-10.53-1.48v-9.95h33.89v9.95l-8.28,0.96l-21.5,82.54h-14.89
		l-18.81-58.86l-2.38-8.47h-0.38l-2.5,8.6l-18.94,58.73H571.6z"/>
</g>
<circle cx="721" cy="1412.46" r="33"/>
<path d="M795,1400.46h42c6.6,0,12,5.4,12,12l0,0c0,6.6-5.4,12-12,12h-42c-6.6,0-12-5.4-12-12l0,0
	C783,1405.86,788.4,1400.46,795,1400.46z"/>
<path d="M891,1400.46h42c6.6,0,12,5.4,12,12l0,0c0,6.6-5.4,12-12,12h-42c-6.6,0-12-5.4-12-12l0,0
	C879,1405.86,884.4,1400.46,891,1400.46z"/>
<g>
	<path d="M24.24,1598.87v-9.88l10.21-1.93v-69.77l-10.21-1.93v-9.95H60.5v9.95l-9.88,1.93v69.77l9.88,1.93v9.88H24.24z
		 M47.98,1574.22l-8.47-9.76l45.19-48.01l0.19-0.26l-8.28-0.83v-9.95h34.85v9.95l-8.79,1.73L47.98,1574.22z M78.67,1598.87v-9.88
		l8.28-0.83v-0.06l-24.65-34.02l10.14-11.36l33.44,44.67l8.92,1.6v9.88H78.67z"/>
</g>
<g>
	<path d="M185,1548.45h42c6.6,0,12,5.4,12,12l0,0c0,6.6-5.4,12-12,12h-42c-6.6,0-12-5.4-12-12l0,0
		C173,1553.85,178.4,1548.45,185,1548.45z"/>
	<circle cx="301" cy="1560.45" r="33"/>
	<path d="M375,1548.45h42c6.6,0,12,5.4,12,12l0,0c0,6.6-5.4,12-12,12h-42c-6.6,0-12-5.4-12-12l0,0
		C363,1553.85,368.4,1548.45,375,1548.45z"/>
</g>
<g>
	<path d="M562.13,1598.87v-9.88l8.15-1.54l27.54-35.37l-25.74-35.17l-7.83-1.54v-9.95h33.89v9.95l-8.86,0.83l18.04,25.16
		l17.52-25.16l-8.86-0.83v-9.95h33.7v9.95l-8.41,1.54l-24.52,34.21l27.41,36.33l8.6,1.54v9.88h-34.6v-9.88l8.54-0.83l-19.38-26.51
		l-19.58,26.51l8.15,0.83v9.88H562.13z"/>
</g>
<path d="M700,1548.45h42c6.6,0,12,5.4,12,12l0,0c0,6.6-5.4,12-12,12h-42c-6.6,0-12-5.4-12-12l0,0
	C688,1553.85,693.4,1548.45,700,1548.45z"/>
<circle cx="816" cy="1560.45" r="33"/>
<circle cx="912" cy="1560.45" r="33"/>
<path d="M986,1548.45h42c6.6,0,12,5.4,12,12l0,0c0,6.6-5.4,12-12,12h-42c-6.6,0-12-5.4-12-12l0,0
	C974,1553.85,979.4,1548.45,986,1548.45z"/>
<g>
	<path d="M24.24,1746.86v-9.88l10.21-1.93v-69.77l-10.21-1.93v-9.95h10.21h16.17h10.98v9.95l-10.98,1.93v69.19h29.2l1.09-14.12H93.3
		v26.51H24.24z"/>
</g>
<g>
	<circle cx="206" cy="1708.44" r="33"/>
	<path d="M280,1696.44h42c6.6,0,12,5.4,12,12l0,0c0,6.6-5.4,12-12,12h-42c-6.6,0-12-5.4-12-12l0,0
		C268,1701.84,273.4,1696.44,280,1696.44z"/>
	<circle cx="396" cy="1708.44" r="33"/>
	<circle cx="492" cy="1708.44" r="33"/>
</g>
<g>
	<path d="M589.22,1746.86v-9.88l10.14-1.93V1714l-28.11-49.36l-8.47-1.28v-9.95h35.17v9.95l-8.92,1.16l17.33,32.74l1.41,2.82
		l0.26-0.13l1.35-2.63l18.74-32.8l-10.59-1.16v-9.95h34.47v9.95l-8.79,1.28l-27.73,48.08v22.34l10.21,1.93v9.88H589.22z"/>
</g>
<path d="M700,1696.44h42c6.6,0,12,5.4,12,12l0,0c0,6.6-5.4,12-12,12h-42c-6.6,0-12-5.4-12-12l0,0
	C688,1701.84,693.4,1696.44,700,1696.44z"/>
<circle cx="816" cy="1708.44" r="33"/>
<path d="M891,1696.44h42c6.6,0,12,5.4,12,12l0,0c0,6.6-5.4,12-12,12h-42c-6.6,0-12-5.4-12-12l0,0
	C879,1701.84,884.4,1696.44,891,1696.44z"/>
<path d="M986,1696.44h42c6.6,0,12,5.4,12,12l0,0c0,6.6-5.4,12-12,12h-42c-6.6,0-12-5.4-12-12l0,0
	C974,1701.84,979.4,1696.44,986,1696.44z"/>
<g>
	<path d="M24.62,1894.85v-9.88l10.14-1.93v-69.77l-10.14-1.93v-9.95h10.14h23.17l27.41,67.59h0.39l26.57-67.59H146v9.95l-10.21,1.93
		v69.77l10.21,1.93v9.88h-36.52v-9.88l10.72-1.93v-21.76l0.13-40.89l-0.32-0.06l-28.95,72.4H79.31l-29.78-72.02l-0.32,0.06
		l0.83,39.41v22.85l11.1,1.93v9.88H24.62z"/>
</g>
<g>
	<path d="M185,1844.44h42c6.6,0,12,5.4,12,12l0,0c0,6.6-5.4,12-12,12h-42c-6.6,0-12-5.4-12-12l0,0
		C173,1849.84,178.4,1844.44,185,1844.44z"/>
	<path d="M280,1844.44h42c6.6,0,12,5.4,12,12l0,0c0,6.6-5.4,12-12,12h-42c-6.6,0-12-5.4-12-12l0,0
		C268,1849.84,273.4,1844.44,280,1844.44z"/>
</g>
<g>
	<path d="M573.69,1894.85v-11.17l46.86-69.77h-31.77l-1.35,12h-12.58l0.45-24.52h64.7v10.85l-47.05,70.16h35.56l1.35-12.52h12.52
		l-0.64,24.97H573.69z"/>
</g>
<circle cx="1006" cy="1856.44" r="33"/>
<path d="M795,1844.44h42c6.6,0,12,5.4,12,12v0c0,6.6-5.4,12-12,12h-42c-6.6,0-12-5.4-12-12v0C783,1849.84,788.4,1844.44,795,1844.44
	z"/>
<path d="M700,1844.44h42c6.6,0,12,5.4,12,12v0c0,6.6-5.4,12-12,12h-42c-6.6,0-12-5.4-12-12v0C688,1849.84,693.4,1844.44,700,1844.44
	z"/>
<circle cx="911" cy="1856.44" r="33"/>
</svg>
