<svg id="Layer_1" xmlns="http://www.w3.org/2000/svg" viewBox="0 0 512 512"><title>morse</title><path d="M72,222.49c2.55,0,2.81-13,3.57-23s4.85-20.68,13-33.7a60,60,0,0,0,7.74-20.18A21.07,21.07,0,0,0,93,129.48c-5.34-7.61-17-17.29-42-17.29-23.22,0-34.3,8.39-39.55,15.7a21,21,0,0,0-3.25,17.22c2.36,9.67,6,17.55,12.92,28.88,3.06,4.85,5.36,15.83,5.36,22.47s-.26,24.77,3.06,25S72,222.49,72,222.49Z"/><polygon points="22.94 221.49 441.15 231.7 440.3 272.04 124.04 263.62 22.94 240.83 22.94 221.49"/><polygon points="283.03 227.86 267.47 307.79 267.47 339.19 340.24 339.19 340.24 308.3 323.08 228.82 283.03 227.86"/><path d="M503.07,348v57.82H108.89V347.64A11.15,11.15,0,0,1,120,336.49H491.56A11.5,11.5,0,0,1,503.07,348Z"/><path d="M407.92,187.34H421v33.87h-13.1Z"/><path d="M153.66,332.93v-6.44a3.55,3.55,0,0,1,3.11-3.53c4.33-.55,12.08-4.06,16-21.28a3.59,3.59,0,0,1,3.48-2.8h29a3.55,3.55,0,0,1,3.48,2.81c1.26,5.93,5.23,19.33,15.71,21.42a3.63,3.63,0,0,1,2.85,3.59v6.22a3.56,3.56,0,0,1-3.56,3.56H157.23A3.56,3.56,0,0,1,153.66,332.93Z"/><path d="M377.62,332.93v-6.44a3.55,3.55,0,0,1,3.11-3.53c4.33-.55,12.08-4.06,16-21.28a3.59,3.59,0,0,1,3.48-2.8h29a3.55,3.55,0,0,1,3.48,2.81C434,307.62,438,321,448.47,323.11a3.63,3.63,0,0,1,2.85,3.59v6.22a3.56,3.56,0,0,1-3.56,3.56H381.19A3.56,3.56,0,0,1,377.62,332.93Z"/><circle cx="303.85" cy="246.57" r="10.72"/><path d="M197.43,284.21v-.79a2,2,0,0,0-2-2h-9.8a2,2,0,0,0-2,2v.79a2.06,2.06,0,0,1-.25,1l-1.86,3.37a2.06,2.06,0,0,0-.25,1v7.34a2,2,0,0,0,2,2H197.8a2,2,0,0,0,2-2v-7.34a2.06,2.06,0,0,0-.25-1l-1.86-3.37A1.78,1.78,0,0,1,197.43,284.21Z"/><path d="M197.43,274.32v.79a2,2,0,0,1-2,2h-9.8a2,2,0,0,1-2-2v-.79a2.06,2.06,0,0,0-.25-1L181.5,270a2.06,2.06,0,0,1-.25-1v-5.36c0-1.11.9-.89,2-.89H197.8c1.11,0,2,0,2,1.11V269a2.06,2.06,0,0,1-.25,1l-1.86,3.37A1.81,1.81,0,0,0,197.43,274.32Z"/><path d="M423.67,285.87v-.7c0-1-1.2-1.78-2.68-1.78H407.93c-1.48,0-2.68.8-2.68,1.78v.7a1.33,1.33,0,0,1-.33.86l-2.48,3a1.33,1.33,0,0,0-.33.86v6.51c0,1,1.2,1.78,2.68,1.78h19.34c1.48,0,2.68-.8,2.68-1.78v-6.51a1.33,1.33,0,0,0-.33-.86l-2.48-3A1.38,1.38,0,0,1,423.67,285.87Z"/><polygon points="414.47 266.35 407.92 266.17 407.92 280.19 414.47 282.96 421.02 280.19 421.02 266.52 414.47 266.35"/><path d="M399.59,221.21h29.77a3.5,3.5,0,0,1,3.5,3.5v2.87a3.5,3.5,0,0,1-3.5,3.5H399.59a3.5,3.5,0,0,1-3.5-3.5v-2.87A3.5,3.5,0,0,1,399.59,221.21Z"/><path d="M403.72,191.85h21.5c1.4,0,2.53,1.57,2.53,3.5v2.87c0,1.93-1.13,3.5-2.53,3.5h-21.5c-1.4,0-2.53-1.57-2.53-3.5v-2.87C401.2,193.42,402.33,191.85,403.72,191.85Z"/><path d="M403.72,177.47h21.5c1.4,0,2.53,1.57,2.53,3.5v2.87c0,1.93-1.13,3.5-2.53,3.5h-21.5c-1.4,0-2.53-1.57-2.53-3.5V181C401.2,179,402.33,177.47,403.72,177.47Z"/><path d="M344.31,220.11h29.77a3.5,3.5,0,0,1,3.5,3.5v2.87a3.5,3.5,0,0,1-3.5,3.5H344.31a3.5,3.5,0,0,1-3.5-3.5v-2.87A3.5,3.5,0,0,1,344.31,220.11Z"/><path d="M357.25,208.79h3.89a2.5,2.5,0,0,1,2.5,2.5v6.62a2.2,2.2,0,0,1-2.2,2.2H357a2.2,2.2,0,0,1-2.2-2.2v-6.62A2.5,2.5,0,0,1,357.25,208.79Z"/><path d="M297.5,212.25h12.71c.83,0,1.49.93,1.49,2.07V216c0,1.14-.67,2.07-1.49,2.07H297.5c-.83,0-1.49-.93-1.49-2.07v-1.7C296,213.18,296.67,212.25,297.5,212.25Z"/><path d="M301.91,218.38h3.89a2.37,2.37,0,0,1,2.5,2.2v5.84a2.09,2.09,0,0,1-2.2,1.94h-4.49a2.08,2.08,0,0,1-2.2-1.94v-5.84A2.36,2.36,0,0,1,301.91,218.38Z"/><path d="M353.93,296.49h10.53a2.46,2.46,0,0,1,2.46,2.46h0a2.46,2.46,0,0,1-2.46,2.46H353.93a2.46,2.46,0,0,1-2.46-2.46h0A2.46,2.46,0,0,1,353.93,296.49Z"/><path d="M353.93,301.4h10.53a2.46,2.46,0,0,1,2.46,2.46h0a2.46,2.46,0,0,1-2.46,2.46H353.93a2.46,2.46,0,0,1-2.46-2.46h0A2.46,2.46,0,0,1,353.93,301.4Z"/><path d="M353.93,306.32h10.53a2.46,2.46,0,0,1,2.46,2.46h0a2.46,2.46,0,0,1-2.46,2.46H353.93a2.46,2.46,0,0,1-2.46-2.46h0A2.46,2.46,0,0,1,353.93,306.32Z"/><path d="M353.93,311.23h10.53a2.46,2.46,0,0,1,2.46,2.46h0a2.46,2.46,0,0,1-2.46,2.46H353.93a2.46,2.46,0,0,1-2.46-2.46h0A2.46,2.46,0,0,1,353.93,311.23Z"/><path d="M353.93,316.15h10.53a2.46,2.46,0,0,1,2.46,2.46h0a2.46,2.46,0,0,1-2.46,2.46H353.93a2.46,2.46,0,0,1-2.46-2.46h0A2.46,2.46,0,0,1,353.93,316.15Z"/><circle cx="359.19" cy="288.77" r="7.72"/><circle cx="359.19" cy="328.77" r="7.72"/><path d="M357.27,267.09h3.85a2.52,2.52,0,0,1,2.52,2.52v16.17a2.5,2.5,0,0,1-2.5,2.5h-3.87a2.52,2.52,0,0,1-2.52-2.52V269.61A2.51,2.51,0,0,1,357.27,267.09Z"/></svg>