<?xml version="1.0" encoding="utf-8"?>
<!-- Generator: Adobe Illustrator 23.0.1, SVG Export Plug-In . SVG Version: 6.00 Build 0)  -->
<svg version="1.0" id="Layer_1" xmlns="http://www.w3.org/2000/svg" xmlns:xlink="http://www.w3.org/1999/xlink" x="0px" y="0px"
	 viewBox="0 0 512 512" style="enable-background:new 0 0 512 512;" xml:space="preserve">
<style type="text/css">
	.st0{clip-path:url(#SVGID_2_);}
</style>
<g>
	<defs>
		<path id="SVGID_1_" d="M428.96,512H83.04C37.18,512,0,474.82,0,428.96V83.04C0,37.18,37.18,0,83.04,0h345.91
			C474.82,0,512,37.18,512,83.04v345.91C512,474.82,474.82,512,428.96,512z"/>
	</defs>
	<clipPath id="SVGID_2_">
		<use xlink:href="#SVGID_1_"  style="overflow:visible;"/>
	</clipPath>
	<path class="st0" d="M71.96,220.49c2.55,0,2.81-13.02,3.57-22.98c0.77-9.96,4.85-20.68,13.02-33.7c4.53-7.22,6.7-14.83,7.74-20.18
		c1.09-5.62-0.03-11.47-3.32-16.15c-5.34-7.61-17.03-17.29-41.96-17.29c-23.22,0-34.3,8.39-39.55,15.7
		c-3.56,4.96-4.69,11.28-3.25,17.22c2.36,9.67,6,17.55,12.92,28.88c3.06,4.85,5.36,15.83,5.36,22.47c0,6.64-0.26,24.77,3.06,25.02
		C32.89,219.72,71.96,220.49,71.96,220.49z"/>
	<polygon class="st0" points="22.94,219.49 441.15,229.7 440.3,270.04 124.04,261.62 22.94,238.83 	"/>
	<polygon class="st0" points="283.03,225.86 267.47,305.79 267.47,337.19 340.24,337.19 340.24,306.3 323.08,226.82 	"/>
	<path class="st0" d="M503.07,347.99v57.82H108.89v-58.17c0-6.16,4.99-11.15,11.15-11.15h371.52
		C497.92,336.49,503.07,341.64,503.07,347.99z"/>
	<path class="st0" d="M407.92,185.34h13.1v33.87h-13.1C407.92,208.74,407.92,185.34,407.92,185.34z"/>
	<path class="st0" d="M153.66,332.93v-6.44c0-1.79,1.33-3.31,3.11-3.53c4.33-0.55,12.08-4.06,16.05-21.28
		c0.38-1.63,1.81-2.8,3.48-2.8h29.02c1.68,0,3.13,1.17,3.48,2.81c1.26,5.93,5.23,19.33,15.71,21.42c1.68,0.33,2.85,1.88,2.85,3.59
		v6.22c0,1.97-1.6,3.56-3.56,3.56h-66.57C155.26,336.49,153.66,334.89,153.66,332.93z"/>
	<path class="st0" d="M377.62,332.93v-6.44c0-1.79,1.33-3.31,3.11-3.53c4.33-0.55,12.08-4.06,16.05-21.28
		c0.38-1.63,1.81-2.8,3.48-2.8h29.02c1.68,0,3.13,1.17,3.48,2.81c1.26,5.93,5.23,19.33,15.71,21.42c1.68,0.33,2.85,1.88,2.85,3.59
		v6.22c0,1.97-1.6,3.56-3.56,3.56h-66.57C379.22,336.49,377.62,334.89,377.62,332.93z"/>
	<circle class="st0" cx="303.85" cy="244.57" r="10.72"/>
	<path class="st0" d="M197.43,284.21v-0.79c0-1.11-0.9-2.01-2.01-2.01h-4.9h-4.9c-1.11,0-2.01,0.9-2.01,2.01v0.79
		c0,0.34-0.09,0.67-0.25,0.97l-1.86,3.37c-0.16,0.3-0.25,0.63-0.25,0.97v7.34c0,1.11,0.9,2.01,2.01,2.01h7.27h7.27
		c1.11,0,2.01-0.9,2.01-2.01v-7.34c0-0.34-0.09-0.67-0.25-0.97l-1.86-3.37C197.51,284.88,197.43,284.55,197.43,284.21z"/>
	<path class="st0" d="M197.43,274.32v0.79c0,1.11-0.9,2.01-2.01,2.01h-4.9h-4.9c-1.11,0-2.01-0.9-2.01-2.01v-0.79
		c0-0.34-0.09-0.67-0.25-0.97l-1.86-3.37c-0.16-0.3-0.25-0.63-0.25-0.97v-5.36c0-1.11,0.9-0.89,2.01-0.89h7.27h7.27
		c1.11,0,2.01,0,2.01,1.11V269c0,0.34-0.09,0.67-0.25,0.97l-1.86,3.37C197.51,273.64,197.43,273.98,197.43,274.32z"/>
	<path class="st0" d="M423.67,285.87v-0.7c0-0.98-1.2-1.78-2.68-1.78h-6.53h-6.53c-1.48,0-2.68,0.8-2.68,1.78v0.7
		c0,0.3-0.11,0.6-0.33,0.86l-2.48,2.99c-0.22,0.26-0.33,0.56-0.33,0.86v6.51c0,0.98,1.2,1.78,2.68,1.78h9.67h9.67
		c1.48,0,2.68-0.8,2.68-1.78v-6.51c0-0.3-0.11-0.6-0.33-0.86l-2.48-2.99C423.79,286.47,423.67,286.17,423.67,285.87z"/>
	<polygon class="st0" points="414.47,266.35 407.92,266.17 407.92,280.19 414.47,282.96 421.02,280.19 421.02,266.52 	"/>
	<path class="st0" d="M399.59,219.21h29.77c1.93,0,3.5,1.57,3.5,3.5v2.87c0,1.93-1.57,3.5-3.5,3.5h-29.77c-1.93,0-3.5-1.57-3.5-3.5
		v-2.87C396.09,220.78,397.66,219.21,399.59,219.21z"/>
	<path class="st0" d="M403.72,189.85h21.5c1.4,0,2.53,1.57,2.53,3.5v2.87c0,1.93-1.13,3.5-2.53,3.5h-21.5c-1.4,0-2.53-1.57-2.53-3.5
		v-2.87C401.2,191.42,402.33,189.85,403.72,189.85z"/>
	<path class="st0" d="M403.72,175.47h21.5c1.4,0,2.53,1.57,2.53,3.5v2.87c0,1.93-1.13,3.5-2.53,3.5h-21.5c-1.4,0-2.53-1.57-2.53-3.5
		v-2.87C401.2,177.04,402.33,175.47,403.72,175.47z"/>
	<path class="st0" d="M344.31,218.11h29.77c1.93,0,3.5,1.57,3.5,3.5v2.87c0,1.93-1.57,3.5-3.5,3.5h-29.77c-1.93,0-3.5-1.57-3.5-3.5
		v-2.87C340.81,219.67,342.38,218.11,344.31,218.11z"/>
	<path class="st0" d="M357.25,206.79h3.89c1.38,0,2.5,1.12,2.5,2.5v6.62c0,1.22-0.99,2.2-2.2,2.2h-4.49c-1.22,0-2.2-0.99-2.2-2.2
		v-6.62C354.75,207.91,355.87,206.79,357.25,206.79z"/>
	<path class="st0" d="M297.5,210.25h12.71c0.83,0,1.49,0.93,1.49,2.07v1.7c0,1.14-0.67,2.07-1.49,2.07H297.5
		c-0.83,0-1.49-0.93-1.49-2.07v-1.7C296,211.18,296.67,210.25,297.5,210.25z"/>
	<path class="st0" d="M301.91,216.38h3.89c1.38,0,2.5,0.99,2.5,2.2v5.84c0,1.07-0.99,1.94-2.2,1.94h-4.49c-1.22,0-2.2-0.87-2.2-1.94
		v-5.84C299.41,217.37,300.52,216.38,301.91,216.38z"/>
	<path class="st0" d="M353.93,294.49h10.53c1.36,0,2.46,1.1,2.46,2.46l0,0c0,1.36-1.1,2.46-2.46,2.46h-10.53
		c-1.36,0-2.46-1.1-2.46-2.46l0,0C351.47,295.59,352.57,294.49,353.93,294.49z"/>
	<path class="st0" d="M353.93,299.4h10.53c1.36,0,2.46,1.1,2.46,2.46l0,0c0,1.36-1.1,2.46-2.46,2.46h-10.53
		c-1.36,0-2.46-1.1-2.46-2.46l0,0C351.47,300.5,352.57,299.4,353.93,299.4z"/>
	<path class="st0" d="M353.93,304.32h10.53c1.36,0,2.46,1.1,2.46,2.46v0c0,1.36-1.1,2.46-2.46,2.46h-10.53
		c-1.36,0-2.46-1.1-2.46-2.46v0C351.47,305.42,352.57,304.32,353.93,304.32z"/>
	<path class="st0" d="M353.93,309.23h10.53c1.36,0,2.46,1.1,2.46,2.46l0,0c0,1.36-1.1,2.46-2.46,2.46h-10.53
		c-1.36,0-2.46-1.1-2.46-2.46l0,0C351.47,310.33,352.57,309.23,353.93,309.23z"/>
	<path class="st0" d="M353.93,314.15h10.53c1.36,0,2.46,1.1,2.46,2.46l0,0c0,1.36-1.1,2.46-2.46,2.46h-10.53
		c-1.36,0-2.46-1.1-2.46-2.46l0,0C351.47,315.25,352.57,314.15,353.93,314.15z"/>
	<circle class="st0" cx="359.19" cy="286.77" r="7.72"/>
	<circle class="st0" cx="359.19" cy="328.77" r="7.72"/>
	<path class="st0" d="M357.27,265.09h3.85c1.39,0,2.52,1.13,2.52,2.52v16.17c0,1.38-1.12,2.5-2.5,2.5h-3.87
		c-1.39,0-2.52-1.13-2.52-2.52v-16.15C354.75,266.21,355.87,265.09,357.27,265.09z"/>
</g>
</svg>
